<svg xmlns="http://www.w3.org/2000/svg" width="430" height="430" style="width:100%;height:100%;transform:translate3d(0,0,0);content-visibility:visible" viewBox="0 0 430 430"><defs><clipPath id="i"><path d="M0 0h430v430H0z"/></clipPath><clipPath id="o"><path d="M0 0h430v430H0z"/></clipPath><clipPath id="r"><path d="M0 0h430v430H0z"/></clipPath><clipPath id="p"><path d="M0 0h430v430H0z"/></clipPath><clipPath id="j"><path d="M0 0h430v430H0z"/></clipPath><clipPath id="k"><path d="M0 0h430v430H0z"/></clipPath><clipPath id="h"><path d="M0 0h430v430H0z"/></clipPath><filter id="a" width="100%" height="100%" x="0%" y="0%" filterUnits="objectBoundingBox"><feComponentTransfer in="SourceGraphic"><feFuncA tableValues="1.0 0.0" type="table"/></feComponentTransfer></filter><filter id="c" width="100%" height="100%" x="0%" y="0%" filterUnits="objectBoundingBox"><feComponentTransfer in="SourceGraphic"><feFuncA tableValues="1.0 0.0" type="table"/></feComponentTransfer></filter><filter id="f" width="100%" height="100%" x="0%" y="0%" filterUnits="objectBoundingBox"><feComponentTransfer in="SourceGraphic"><feFuncA tableValues="1.0 0.0" type="table"/></feComponentTransfer></filter><mask id="q" mask-type="alpha"><g filter="url(#a)"><path fill="#fff" d="M0 0h430v430H0z" opacity="0"/><use xmlns:ns1="http://www.w3.org/1999/xlink" ns1:href="#b"/></g></mask><mask id="n" mask-type="alpha"><g filter="url(#c)"><path fill="#fff" d="M0 0h430v430H0z" opacity="0"/><use xmlns:ns2="http://www.w3.org/1999/xlink" ns2:href="#d"/></g></mask><mask id="m" mask-type="alpha"><g filter="url(#f)"><path fill="#fff" d="M0 0h430v430H0z" opacity="0"/><use xmlns:ns3="http://www.w3.org/1999/xlink" ns3:href="#g"/></g></mask><path id="b" style="display:none"/><path id="g" fill="#FFF" d="M133.433-53.373h-266.866l-.432 193.97c0 12.027 9.749 21.776 21.776 21.776h223.313c12.027 0 21.776-9.749 21.776-21.776z" style="display:block" transform="translate(215 307.746)"/><g id="d" fill="red" clip-path="url(#h)" style="display:block"><path d="M-52.864-95.319c-1.755 10.261 5.138 20.01 15.409 21.767 10.26 1.755 20.012-5.148 21.767-15.409C-17.443-78.7-10.55-68.951-.279-67.194c10.26 1.755 20.012-5.148 21.767-15.409-1.755 10.261 5.138 20.01 15.409 21.767 10.26 1.755 20.012-5.148 21.767-15.409 0 0-21.876 138.271-86.736 171.564C-76.588 42.636-52.864-95.319-52.864-95.319" style="display:block" transform="translate(287.716 213.2)"/><path d="M48.937 55.31c.859 6.916-4.091 13.271-11.007 14.13l-57.713 7.171c-6.916.859-13.271-4.09-14.13-11.006L-48.937-55.311c-.859-6.911 4.09-13.27 11.006-14.129l57.714-7.171c6.916-.859 13.27 4.095 14.129 11.006z" style="display:block" transform="translate(154.966 219.091)"/></g></defs><g clip-path="url(#i)"><g clip-path="url(#j)" style="display:block"><g clip-path="url(#k)" mask="url(#m)" style="display:block"><g mask="url(#n)" style="display:block"><path fill="none" stroke="#08A88A" stroke-linecap="round" stroke-linejoin="round" stroke-width="12" d="M209.736 354.047c-12.168 5.402-20.604 17.651-20.46 31.804.195 19.014 15.75 34.265 34.755 34.08 19.005-.196 34.265-15.75 34.08-34.756-.155-14.785-9.584-27.294-22.712-32.042l-2.686-76.258-13.2-9.919-12.467 10.824zm17.889-63.841 5.55-.196m-5.009 15.549 5.55-.196m-5.009 15.549 5.55-.196m-10.154 76.555q0 0 0 0" class="secondary"/></g><g fill="none" stroke-linecap="round" stroke-linejoin="round" stroke-width="12" style="display:block"><path stroke="#121331" d="M203.903 274.401c.859 6.916-4.091 13.271-11.007 14.13l-57.713 7.171c-6.916.859-13.271-4.09-14.13-11.006L106.029 163.78c-.859-6.911 4.09-13.27 11.006-14.129l57.714-7.171c6.916-.859 13.27 4.095 14.129 11.006z" class="primary"/><path stroke="#08A88A" d="m159.256 164.326-21.044 2.614" class="secondary"/></g><g fill="none" stroke-linecap="round" stroke-linejoin="round" stroke-width="12" style="display:block"><path stroke="#121331" d="m287.438 146.004 10.326-60.374c2.071-12.109 13.576-20.253 25.685-18.182 12.119 2.073 20.264 13.577 18.193 25.686" class="primary"/><path stroke="#08A88A" d="M234.852 117.881c-1.755 10.261 5.138 20.01 15.409 21.767 10.26 1.755 20.012-5.148 21.767-15.409-1.755 10.261 5.138 20.01 15.409 21.767 10.26 1.755 20.012-5.148 21.767-15.409-1.755 10.261 5.138 20.01 15.409 21.767 10.26 1.755 20.012-5.148 21.767-15.409 0 0-21.876 138.271-86.736 171.564-48.516-52.683-24.792-190.638-24.792-190.638" class="secondary"/><path stroke="#08A88A" d="M309.204 130.597c-10.516 72.678-49.56 177.922-49.56 177.922m12.338-184.009c-14.234 72.042-12.385 184.28-12.385 184.28" class="secondary"/></g></g><g fill="none" stroke-linecap="round" stroke-linejoin="round" stroke-width="12" style="display:block"><path stroke="#121331" d="M348.433 254.373H81.567v84.97c0 12.027 9.749 21.776 21.776 21.776h223.314c12.027 0 21.776-9.749 21.776-21.776zm-266.866 0-26.686-54.524m293.836 54.397 26.686-54.524" class="primary"/><path stroke="#08A88A" d="M214.997 318.939s-.188-4.459 9.073-13.204c2.931-2.768 5.666-7.979 5.666-12.74 0-8.14-6.6-14.74-14.74-14.74s-14.732 6.6-14.732 14.74m14.67 44.242h.034" class="secondary"/></g></g><g fill="none" clip-path="url(#o)" style="display:none"><g clip-path="url(#p)" mask="url(#q)" style="display:none"><g style="display:none"><path class="primary"/><path class="secondary"/></g><g style="display:none"><path class="primary"/><path class="secondary"/><path class="secondary"/><path class="secondary"/></g></g><g clip-path="url(#r)" style="display:none"><g style="display:none"><path class="primary"/><path class="secondary"/><path class="secondary"/></g><g style="display:none"><path class="primary"/><path class="primary"/></g></g></g></g></svg>